<mxfile host="app.diagrams.net" agent="Mozilla/5.0 (Windows NT 10.0; Win64; x64) AppleWebKit/537.36 (KHTML, like Gecko) Chrome/139.0.0.0 Safari/537.36" version="28.0.9">
  <diagram name="Page-1" id="l1wH-XDEgYlGQfeE25UX">
    <mxGraphModel dx="4352" dy="2060" grid="1" gridSize="10" guides="1" tooltips="1" connect="1" arrows="1" fold="1" page="1" pageScale="1" pageWidth="827" pageHeight="1169" math="0" shadow="0">
      <root>
        <mxCell id="0" />
        <mxCell id="1" parent="0" />
        <mxCell id="0p9WFNobWIb_lMgW7o_B-100" value="" style="edgeStyle=orthogonalEdgeStyle;rounded=0;orthogonalLoop=1;jettySize=auto;html=1;" edge="1" parent="1" source="0p9WFNobWIb_lMgW7o_B-97" target="0p9WFNobWIb_lMgW7o_B-98">
          <mxGeometry relative="1" as="geometry" />
        </mxCell>
        <mxCell id="0p9WFNobWIb_lMgW7o_B-97" value="&lt;font style=&quot;font-size: 20px;&quot;&gt;Start&lt;/font&gt;" style="ellipse;whiteSpace=wrap;html=1;" vertex="1" parent="1">
          <mxGeometry x="336" y="70" width="154" height="100" as="geometry" />
        </mxCell>
        <mxCell id="0p9WFNobWIb_lMgW7o_B-103" value="" style="edgeStyle=orthogonalEdgeStyle;rounded=0;orthogonalLoop=1;jettySize=auto;html=1;" edge="1" parent="1" source="0p9WFNobWIb_lMgW7o_B-98" target="0p9WFNobWIb_lMgW7o_B-101">
          <mxGeometry relative="1" as="geometry" />
        </mxCell>
        <mxCell id="0p9WFNobWIb_lMgW7o_B-98" value="&lt;font style=&quot;font-size: 20px;&quot;&gt;Initialize: Set schedules, amounts, calibrate sensors, start RTC&lt;/font&gt;" style="rounded=1;whiteSpace=wrap;html=1;" vertex="1" parent="1">
          <mxGeometry x="284" y="230" width="260" height="100" as="geometry" />
        </mxCell>
        <mxCell id="0p9WFNobWIb_lMgW7o_B-104" value="" style="edgeStyle=orthogonalEdgeStyle;rounded=0;orthogonalLoop=1;jettySize=auto;html=1;" edge="1" parent="1" source="0p9WFNobWIb_lMgW7o_B-101" target="0p9WFNobWIb_lMgW7o_B-102">
          <mxGeometry relative="1" as="geometry" />
        </mxCell>
        <mxCell id="0p9WFNobWIb_lMgW7o_B-101" value="&lt;font style=&quot;font-size: 20px;&quot;&gt;Check current time and button status&lt;/font&gt;" style="rounded=1;whiteSpace=wrap;html=1;shape=parallelogram;perimeter=parallelogramPerimeter;fixedSize=1;" vertex="1" parent="1">
          <mxGeometry x="284" y="370" width="260" height="100" as="geometry" />
        </mxCell>
        <mxCell id="0p9WFNobWIb_lMgW7o_B-106" style="edgeStyle=orthogonalEdgeStyle;rounded=0;orthogonalLoop=1;jettySize=auto;html=1;exitX=0;exitY=0.5;exitDx=0;exitDy=0;entryX=0.431;entryY=-0.01;entryDx=0;entryDy=0;entryPerimeter=0;" edge="1" parent="1" source="0p9WFNobWIb_lMgW7o_B-102" target="0p9WFNobWIb_lMgW7o_B-112">
          <mxGeometry relative="1" as="geometry">
            <mxPoint x="90" y="1360" as="targetPoint" />
            <mxPoint x="264.1313131313127" y="630.0011111111108" as="sourcePoint" />
          </mxGeometry>
        </mxCell>
        <mxCell id="0p9WFNobWIb_lMgW7o_B-108" value="&lt;font style=&quot;font-size: 14px;&quot;&gt;No&lt;/font&gt;" style="edgeLabel;html=1;align=center;verticalAlign=middle;resizable=0;points=[];" vertex="1" connectable="0" parent="0p9WFNobWIb_lMgW7o_B-106">
          <mxGeometry x="0.2563" y="1" relative="1" as="geometry">
            <mxPoint as="offset" />
          </mxGeometry>
        </mxCell>
        <mxCell id="0p9WFNobWIb_lMgW7o_B-107" style="edgeStyle=orthogonalEdgeStyle;rounded=0;orthogonalLoop=1;jettySize=auto;html=1;entryX=0.5;entryY=-0.057;entryDx=0;entryDy=0;entryPerimeter=0;" edge="1" parent="1" source="0p9WFNobWIb_lMgW7o_B-102" target="0p9WFNobWIb_lMgW7o_B-105">
          <mxGeometry relative="1" as="geometry">
            <mxPoint x="720" y="850" as="targetPoint" />
          </mxGeometry>
        </mxCell>
        <mxCell id="0p9WFNobWIb_lMgW7o_B-109" value="&lt;font style=&quot;font-size: 14px;&quot;&gt;Yes&lt;/font&gt;" style="edgeLabel;html=1;align=center;verticalAlign=middle;resizable=0;points=[];" vertex="1" connectable="0" parent="0p9WFNobWIb_lMgW7o_B-107">
          <mxGeometry x="0.2674" y="2" relative="1" as="geometry">
            <mxPoint as="offset" />
          </mxGeometry>
        </mxCell>
        <mxCell id="0p9WFNobWIb_lMgW7o_B-102" value="&lt;font style=&quot;font-size: 20px;&quot;&gt;Time to feed or button pressed?&lt;/font&gt;" style="rounded=1;whiteSpace=wrap;html=1;shape=rhombus;perimeter=rhombusPerimeter;" vertex="1" parent="1">
          <mxGeometry x="284" y="510" width="260" height="220" as="geometry" />
        </mxCell>
        <mxCell id="0p9WFNobWIb_lMgW7o_B-111" value="" style="edgeStyle=orthogonalEdgeStyle;rounded=0;orthogonalLoop=1;jettySize=auto;html=1;" edge="1" parent="1" source="0p9WFNobWIb_lMgW7o_B-105" target="0p9WFNobWIb_lMgW7o_B-110">
          <mxGeometry relative="1" as="geometry" />
        </mxCell>
        <mxCell id="0p9WFNobWIb_lMgW7o_B-105" value="&lt;font style=&quot;font-size: 20px;&quot;&gt;Activate dry/wet servo&lt;/font&gt;" style="rounded=1;whiteSpace=wrap;html=1;shape=parallelogram;perimeter=parallelogramPerimeter;fixedSize=1;" vertex="1" parent="1">
          <mxGeometry x="590" y="880" width="260" height="100" as="geometry" />
        </mxCell>
        <mxCell id="0p9WFNobWIb_lMgW7o_B-113" style="edgeStyle=orthogonalEdgeStyle;rounded=0;orthogonalLoop=1;jettySize=auto;html=1;entryX=0.5;entryY=0;entryDx=0;entryDy=0;" edge="1" parent="1" source="0p9WFNobWIb_lMgW7o_B-110" target="0p9WFNobWIb_lMgW7o_B-116">
          <mxGeometry relative="1" as="geometry">
            <mxPoint x="1390" y="1150" as="targetPoint" />
            <Array as="points">
              <mxPoint x="1440" y="930" />
              <mxPoint x="1440" y="1260" />
            </Array>
          </mxGeometry>
        </mxCell>
        <mxCell id="0p9WFNobWIb_lMgW7o_B-117" value="&lt;font style=&quot;font-size: 14px;&quot;&gt;No&lt;/font&gt;" style="edgeLabel;html=1;align=center;verticalAlign=middle;resizable=0;points=[];" vertex="1" connectable="0" parent="0p9WFNobWIb_lMgW7o_B-113">
          <mxGeometry x="0.3867" y="2" relative="1" as="geometry">
            <mxPoint as="offset" />
          </mxGeometry>
        </mxCell>
        <mxCell id="0p9WFNobWIb_lMgW7o_B-114" style="edgeStyle=orthogonalEdgeStyle;rounded=0;orthogonalLoop=1;jettySize=auto;html=1;entryX=0.5;entryY=0;entryDx=0;entryDy=0;" edge="1" parent="1" source="0p9WFNobWIb_lMgW7o_B-110" target="0p9WFNobWIb_lMgW7o_B-115">
          <mxGeometry relative="1" as="geometry">
            <mxPoint x="1090" y="1230" as="targetPoint" />
            <Array as="points" />
          </mxGeometry>
        </mxCell>
        <mxCell id="0p9WFNobWIb_lMgW7o_B-118" value="&lt;font style=&quot;font-size: 14px;&quot;&gt;Yes&lt;/font&gt;" style="edgeLabel;html=1;align=center;verticalAlign=middle;resizable=0;points=[];" vertex="1" connectable="0" parent="0p9WFNobWIb_lMgW7o_B-114">
          <mxGeometry x="-0.3835" y="4" relative="1" as="geometry">
            <mxPoint as="offset" />
          </mxGeometry>
        </mxCell>
        <mxCell id="0p9WFNobWIb_lMgW7o_B-110" value="&lt;font style=&quot;font-size: 20px;&quot;&gt;Dispense successful?&lt;/font&gt;" style="rounded=1;whiteSpace=wrap;html=1;shape=rhombus;perimeter=rhombusPerimeter;" vertex="1" parent="1">
          <mxGeometry x="960" y="820" width="260" height="220" as="geometry" />
        </mxCell>
        <mxCell id="0p9WFNobWIb_lMgW7o_B-129" value="" style="edgeStyle=orthogonalEdgeStyle;rounded=0;orthogonalLoop=1;jettySize=auto;html=1;" edge="1" parent="1" source="0p9WFNobWIb_lMgW7o_B-112" target="0p9WFNobWIb_lMgW7o_B-128">
          <mxGeometry relative="1" as="geometry" />
        </mxCell>
        <mxCell id="0p9WFNobWIb_lMgW7o_B-112" value="&lt;font style=&quot;font-size: 20px;&quot;&gt;Read bowl weight&lt;/font&gt;" style="rounded=1;whiteSpace=wrap;html=1;shape=parallelogram;perimeter=parallelogramPerimeter;fixedSize=1;" vertex="1" parent="1">
          <mxGeometry x="-20" y="1420" width="260" height="100" as="geometry" />
        </mxCell>
        <mxCell id="0p9WFNobWIb_lMgW7o_B-115" value="&lt;font style=&quot;font-size: 20px;&quot;&gt;Log: timestamp: Dispensed food type, amount g, Set last_feed_time&lt;/font&gt;" style="rounded=1;whiteSpace=wrap;html=1;shape=parallelogram;perimeter=parallelogramPerimeter;fixedSize=1;" vertex="1" parent="1">
          <mxGeometry x="960" y="1270" width="260" height="100" as="geometry" />
        </mxCell>
        <mxCell id="0p9WFNobWIb_lMgW7o_B-123" style="edgeStyle=orthogonalEdgeStyle;rounded=0;orthogonalLoop=1;jettySize=auto;html=1;entryX=1;entryY=0.5;entryDx=0;entryDy=0;" edge="1" parent="1" source="0p9WFNobWIb_lMgW7o_B-116" target="0p9WFNobWIb_lMgW7o_B-112">
          <mxGeometry relative="1" as="geometry">
            <mxPoint x="1440" y="2000" as="targetPoint" />
            <Array as="points">
              <mxPoint x="1440" y="1470" />
            </Array>
          </mxGeometry>
        </mxCell>
        <mxCell id="0p9WFNobWIb_lMgW7o_B-116" value="&lt;font style=&quot;font-size: 20px;&quot;&gt;Activate buzzer/LED, Log: Dispense Failed&lt;/font&gt;" style="rounded=1;whiteSpace=wrap;html=1;shape=parallelogram;perimeter=parallelogramPerimeter;fixedSize=1;" vertex="1" parent="1">
          <mxGeometry x="1310" y="1270" width="260" height="100" as="geometry" />
        </mxCell>
        <mxCell id="0p9WFNobWIb_lMgW7o_B-120" style="edgeStyle=orthogonalEdgeStyle;rounded=0;orthogonalLoop=1;jettySize=auto;html=1;entryX=0.575;entryY=-0.045;entryDx=0;entryDy=0;entryPerimeter=0;exitX=0;exitY=0.5;exitDx=0;exitDy=0;" edge="1" parent="1" source="0p9WFNobWIb_lMgW7o_B-115" target="0p9WFNobWIb_lMgW7o_B-112">
          <mxGeometry relative="1" as="geometry">
            <mxPoint x="960" y="1279.9956410256411" as="sourcePoint" />
            <mxPoint x="161.74" y="1390.47" as="targetPoint" />
            <Array as="points">
              <mxPoint x="129" y="1320" />
            </Array>
          </mxGeometry>
        </mxCell>
        <mxCell id="0p9WFNobWIb_lMgW7o_B-128" value="&lt;font style=&quot;font-size: 20px;&quot;&gt;last_feed_time + 2h &amp;lt; current time and bowl_weight &amp;gt; 10g?&lt;/font&gt;" style="rounded=1;whiteSpace=wrap;html=1;shape=rhombus;perimeter=rhombusPerimeter;" vertex="1" parent="1">
          <mxGeometry x="-20" y="1640" width="260" height="250" as="geometry" />
        </mxCell>
        <mxCell id="0p9WFNobWIb_lMgW7o_B-146" style="edgeStyle=orthogonalEdgeStyle;rounded=0;orthogonalLoop=1;jettySize=auto;html=1;entryX=0;entryY=0.5;entryDx=0;entryDy=0;" edge="1" parent="1" source="0p9WFNobWIb_lMgW7o_B-130" target="0p9WFNobWIb_lMgW7o_B-138">
          <mxGeometry relative="1" as="geometry">
            <Array as="points">
              <mxPoint x="-200" y="2260" />
            </Array>
          </mxGeometry>
        </mxCell>
        <mxCell id="0p9WFNobWIb_lMgW7o_B-130" value="&lt;font style=&quot;font-size: 20px;&quot;&gt;Log: timestamp: Weight = bowl_weight g&lt;/font&gt;" style="rounded=1;whiteSpace=wrap;html=1;shape=parallelogram;perimeter=parallelogramPerimeter;fixedSize=1;" vertex="1" parent="1">
          <mxGeometry x="-300" y="1960" width="260" height="100" as="geometry" />
        </mxCell>
        <mxCell id="0p9WFNobWIb_lMgW7o_B-131" style="edgeStyle=orthogonalEdgeStyle;rounded=0;orthogonalLoop=1;jettySize=auto;html=1;entryX=0.463;entryY=-0.041;entryDx=0;entryDy=0;entryPerimeter=0;" edge="1" parent="1" source="0p9WFNobWIb_lMgW7o_B-128" target="0p9WFNobWIb_lMgW7o_B-130">
          <mxGeometry relative="1" as="geometry" />
        </mxCell>
        <mxCell id="0p9WFNobWIb_lMgW7o_B-132" value="&lt;font style=&quot;font-size: 14px;&quot;&gt;No&lt;/font&gt;" style="edgeLabel;html=1;align=center;verticalAlign=middle;resizable=0;points=[];" vertex="1" connectable="0" parent="0p9WFNobWIb_lMgW7o_B-131">
          <mxGeometry x="0.2905" y="3" relative="1" as="geometry">
            <mxPoint as="offset" />
          </mxGeometry>
        </mxCell>
        <mxCell id="0p9WFNobWIb_lMgW7o_B-133" value="&lt;font style=&quot;font-size: 20px;&quot;&gt;Activate buzzer/LED, Log: Food Uneaten&lt;/font&gt;" style="rounded=1;whiteSpace=wrap;html=1;shape=parallelogram;perimeter=parallelogramPerimeter;fixedSize=1;" vertex="1" parent="1">
          <mxGeometry x="250" y="1960" width="260" height="100" as="geometry" />
        </mxCell>
        <mxCell id="0p9WFNobWIb_lMgW7o_B-136" style="edgeStyle=orthogonalEdgeStyle;rounded=0;orthogonalLoop=1;jettySize=auto;html=1;entryX=0.579;entryY=0.116;entryDx=0;entryDy=0;entryPerimeter=0;" edge="1" parent="1" source="0p9WFNobWIb_lMgW7o_B-128" target="0p9WFNobWIb_lMgW7o_B-133">
          <mxGeometry relative="1" as="geometry" />
        </mxCell>
        <mxCell id="0p9WFNobWIb_lMgW7o_B-137" value="&lt;font style=&quot;font-size: 14px;&quot;&gt;Yes&lt;/font&gt;" style="edgeLabel;html=1;align=center;verticalAlign=middle;resizable=0;points=[];" vertex="1" connectable="0" parent="0p9WFNobWIb_lMgW7o_B-136">
          <mxGeometry x="0.3537" y="-6" relative="1" as="geometry">
            <mxPoint as="offset" />
          </mxGeometry>
        </mxCell>
        <mxCell id="0p9WFNobWIb_lMgW7o_B-148" value="" style="edgeStyle=orthogonalEdgeStyle;rounded=0;orthogonalLoop=1;jettySize=auto;html=1;" edge="1" parent="1" source="0p9WFNobWIb_lMgW7o_B-138" target="0p9WFNobWIb_lMgW7o_B-147">
          <mxGeometry relative="1" as="geometry" />
        </mxCell>
        <mxCell id="0p9WFNobWIb_lMgW7o_B-138" value="&lt;font style=&quot;font-size: 20px;&quot;&gt;Wait 30 seconds&lt;/font&gt;" style="rounded=1;whiteSpace=wrap;html=1;" vertex="1" parent="1">
          <mxGeometry x="-20" y="2210" width="260" height="100" as="geometry" />
        </mxCell>
        <mxCell id="0p9WFNobWIb_lMgW7o_B-145" style="edgeStyle=orthogonalEdgeStyle;rounded=0;orthogonalLoop=1;jettySize=auto;html=1;entryX=1.007;entryY=0.421;entryDx=0;entryDy=0;entryPerimeter=0;" edge="1" parent="1" source="0p9WFNobWIb_lMgW7o_B-133" target="0p9WFNobWIb_lMgW7o_B-138">
          <mxGeometry relative="1" as="geometry">
            <Array as="points">
              <mxPoint x="400" y="2252" />
            </Array>
          </mxGeometry>
        </mxCell>
        <mxCell id="0p9WFNobWIb_lMgW7o_B-147" value="&lt;font style=&quot;font-size: 20px;&quot;&gt;End&lt;/font&gt;" style="ellipse;whiteSpace=wrap;html=1;" vertex="1" parent="1">
          <mxGeometry x="33" y="2410" width="154" height="100" as="geometry" />
        </mxCell>
      </root>
    </mxGraphModel>
  </diagram>
</mxfile>
